<mxfile host="app.diagrams.net" agent="Mozilla/5.0 (Windows NT 10.0; Win64; x64) AppleWebKit/537.36 (KHTML, like Gecko) Chrome/139.0.0.0 Safari/537.36" version="28.1.1">
  <diagram name="ページ1" id="tUgcXEpOmgglvWfQNpQ3">
    <mxGraphModel dx="3204" dy="2407" grid="1" gridSize="10" guides="1" tooltips="1" connect="1" arrows="1" fold="1" page="1" pageScale="1" pageWidth="827" pageHeight="1169" math="0" shadow="0">
      <root>
        <mxCell id="0" />
        <mxCell id="1" parent="0" />
        <mxCell id="bCrB_X___vxIP5thywsW-55" value="&lt;font style=&quot;font-size: 20px;&quot;&gt;AWS Portfolio Site Architecture&lt;/font&gt;" style="fillColor=none;strokeColor=#5A6C86;dashed=1;verticalAlign=top;fontStyle=0;fontColor=#5A6C86;whiteSpace=wrap;html=1;" parent="1" vertex="1">
          <mxGeometry x="-29" y="-30" width="1270" height="660" as="geometry" />
        </mxCell>
        <mxCell id="bCrB_X___vxIP5thywsW-2" value="" style="sketch=0;points=[[0,0,0],[0.25,0,0],[0.5,0,0],[0.75,0,0],[1,0,0],[0,1,0],[0.25,1,0],[0.5,1,0],[0.75,1,0],[1,1,0],[0,0.25,0],[0,0.5,0],[0,0.75,0],[1,0.25,0],[1,0.5,0],[1,0.75,0]];outlineConnect=0;fontColor=#232F3E;fillColor=#8C4FFF;strokeColor=#ffffff;dashed=0;verticalLabelPosition=bottom;verticalAlign=top;align=center;html=1;fontSize=12;fontStyle=0;aspect=fixed;shape=mxgraph.aws4.resourceIcon;resIcon=mxgraph.aws4.route_53;" parent="1" vertex="1">
          <mxGeometry x="232.5" y="99" width="78" height="78" as="geometry" />
        </mxCell>
        <mxCell id="bCrB_X___vxIP5thywsW-3" value="" style="sketch=0;points=[[0,0,0],[0.25,0,0],[0.5,0,0],[0.75,0,0],[1,0,0],[0,1,0],[0.25,1,0],[0.5,1,0],[0.75,1,0],[1,1,0],[0,0.25,0],[0,0.5,0],[0,0.75,0],[1,0.25,0],[1,0.5,0],[1,0.75,0]];outlineConnect=0;fontColor=#232F3E;fillColor=#8C4FFF;strokeColor=#ffffff;dashed=0;verticalLabelPosition=bottom;verticalAlign=top;align=center;html=1;fontSize=12;fontStyle=0;aspect=fixed;shape=mxgraph.aws4.resourceIcon;resIcon=mxgraph.aws4.cloudfront;" parent="1" vertex="1">
          <mxGeometry x="464.5" y="99" width="78" height="78" as="geometry" />
        </mxCell>
        <mxCell id="bCrB_X___vxIP5thywsW-13" value="" style="edgeStyle=orthogonalEdgeStyle;html=1;endArrow=block;elbow=vertical;startArrow=none;endFill=1;strokeColor=#545B64;rounded=0;" parent="1" edge="1" target="bCrB_X___vxIP5thywsW-2" source="bCrB_X___vxIP5thywsW-54">
          <mxGeometry width="100" relative="1" as="geometry">
            <mxPoint x="102.5" y="146.5" as="sourcePoint" />
            <mxPoint x="202.5" y="146.5" as="targetPoint" />
          </mxGeometry>
        </mxCell>
        <mxCell id="bCrB_X___vxIP5thywsW-14" value="" style="edgeStyle=orthogonalEdgeStyle;html=1;endArrow=block;elbow=vertical;startArrow=none;endFill=1;strokeColor=#545B64;rounded=0;exitX=1;exitY=0.5;exitDx=0;exitDy=0;exitPerimeter=0;entryX=0;entryY=0.5;entryDx=0;entryDy=0;entryPerimeter=0;" parent="1" edge="1" target="bCrB_X___vxIP5thywsW-3" source="bCrB_X___vxIP5thywsW-2">
          <mxGeometry width="100" relative="1" as="geometry">
            <mxPoint x="336.5" y="137.5" as="sourcePoint" />
            <mxPoint x="436.5" y="137.5" as="targetPoint" />
          </mxGeometry>
        </mxCell>
        <mxCell id="bCrB_X___vxIP5thywsW-15" value="" style="edgeStyle=orthogonalEdgeStyle;html=1;endArrow=block;elbow=vertical;startArrow=none;endFill=1;strokeColor=#545B64;rounded=0;exitX=1;exitY=0.5;exitDx=0;exitDy=0;exitPerimeter=0;" parent="1" edge="1" source="bCrB_X___vxIP5thywsW-3">
          <mxGeometry width="100" relative="1" as="geometry">
            <mxPoint x="572.5" y="137.5" as="sourcePoint" />
            <mxPoint x="693.5" y="138.00000000000023" as="targetPoint" />
          </mxGeometry>
        </mxCell>
        <mxCell id="bCrB_X___vxIP5thywsW-18" value="User" style="text;html=1;align=center;verticalAlign=middle;whiteSpace=wrap;rounded=0;" parent="1" vertex="1">
          <mxGeometry x="20" y="180" width="60" height="30" as="geometry" />
        </mxCell>
        <mxCell id="bCrB_X___vxIP5thywsW-54" value="" style="sketch=0;outlineConnect=0;fontColor=#232F3E;gradientColor=none;fillColor=#232F3D;strokeColor=none;dashed=0;verticalLabelPosition=bottom;verticalAlign=top;align=center;html=1;fontSize=12;fontStyle=0;aspect=fixed;pointerEvents=1;shape=mxgraph.aws4.user;" parent="1" vertex="1">
          <mxGeometry x="11" y="99" width="78" height="78" as="geometry" />
        </mxCell>
        <mxCell id="lHFqAj4BvlfWGVQL3a8l-13" value="" style="edgeStyle=orthogonalEdgeStyle;html=1;endArrow=block;elbow=vertical;startArrow=none;endFill=1;strokeColor=#545B64;rounded=0;" edge="1" parent="1" source="lHFqAj4BvlfWGVQL3a8l-6" target="bCrB_X___vxIP5thywsW-6">
          <mxGeometry width="100" relative="1" as="geometry">
            <mxPoint x="1107.5" y="497.81999999999994" as="sourcePoint" />
            <mxPoint x="1020" y="497.40999999999997" as="targetPoint" />
          </mxGeometry>
        </mxCell>
        <mxCell id="lHFqAj4BvlfWGVQL3a8l-15" value="" style="edgeStyle=orthogonalEdgeStyle;html=1;endArrow=block;elbow=vertical;startArrow=none;endFill=1;strokeColor=#545B64;rounded=1;entryX=0.5;entryY=0;entryDx=0;entryDy=0;entryPerimeter=0;curved=0;" edge="1" parent="1" source="bCrB_X___vxIP5thywsW-6" target="bCrB_X___vxIP5thywsW-3">
          <mxGeometry width="100" relative="1" as="geometry">
            <mxPoint x="960" y="480" as="sourcePoint" />
            <mxPoint x="990" y="330" as="targetPoint" />
            <Array as="points">
              <mxPoint x="960" y="60" />
              <mxPoint x="504" y="60" />
            </Array>
          </mxGeometry>
        </mxCell>
        <mxCell id="bCrB_X___vxIP5thywsW-46" value="" style="edgeStyle=orthogonalEdgeStyle;html=1;endArrow=block;elbow=vertical;startArrow=none;endFill=1;strokeColor=#545B64;rounded=0;entryX=1;entryY=0.5;entryDx=0;entryDy=0;" parent="1" edge="1" source="bCrB_X___vxIP5thywsW-6">
          <mxGeometry width="100" relative="1" as="geometry">
            <mxPoint x="910" y="499" as="sourcePoint" />
            <mxPoint x="772.4999999999991" y="498.5" as="targetPoint" />
          </mxGeometry>
        </mxCell>
        <mxCell id="lHFqAj4BvlfWGVQL3a8l-26" value="" style="group" vertex="1" connectable="0" parent="1">
          <mxGeometry x="910" y="460.5" width="100" height="115" as="geometry" />
        </mxCell>
        <mxCell id="bCrB_X___vxIP5thywsW-6" value="" style="dashed=0;outlineConnect=0;html=1;align=center;labelPosition=center;verticalLabelPosition=bottom;verticalAlign=top;shape=mxgraph.weblogos.github" parent="lHFqAj4BvlfWGVQL3a8l-26" vertex="1">
          <mxGeometry x="12.5" width="75" height="75" as="geometry" />
        </mxCell>
        <mxCell id="bCrB_X___vxIP5thywsW-25" value="Github Actions&lt;div&gt;(CI/CD)&lt;/div&gt;" style="text;html=1;align=center;verticalAlign=middle;resizable=0;points=[];autosize=1;strokeColor=none;fillColor=none;" parent="lHFqAj4BvlfWGVQL3a8l-26" vertex="1">
          <mxGeometry y="75" width="100" height="40" as="geometry" />
        </mxCell>
        <mxCell id="lHFqAj4BvlfWGVQL3a8l-27" value="" style="group" vertex="1" connectable="0" parent="1">
          <mxGeometry x="1130" y="458.5" width="78" height="108" as="geometry" />
        </mxCell>
        <mxCell id="lHFqAj4BvlfWGVQL3a8l-6" value="" style="sketch=0;outlineConnect=0;fontColor=#232F3E;gradientColor=none;fillColor=#232F3D;strokeColor=none;dashed=0;verticalLabelPosition=bottom;verticalAlign=top;align=center;html=1;fontSize=12;fontStyle=0;aspect=fixed;pointerEvents=1;shape=mxgraph.aws4.authenticated_user;" vertex="1" parent="lHFqAj4BvlfWGVQL3a8l-27">
          <mxGeometry width="78" height="78" as="geometry" />
        </mxCell>
        <mxCell id="lHFqAj4BvlfWGVQL3a8l-21" value="Developer" style="text;html=1;align=center;verticalAlign=middle;whiteSpace=wrap;rounded=0;" vertex="1" parent="lHFqAj4BvlfWGVQL3a8l-27">
          <mxGeometry x="6" y="78" width="60" height="30" as="geometry" />
        </mxCell>
        <mxCell id="lHFqAj4BvlfWGVQL3a8l-30" value="CloudFront&lt;div&gt;(CDN + OAC + HTTPS)&lt;/div&gt;" style="text;html=1;align=center;verticalAlign=middle;whiteSpace=wrap;rounded=0;" vertex="1" parent="1">
          <mxGeometry x="436.25" y="185" width="130.5" height="30" as="geometry" />
        </mxCell>
        <mxCell id="lHFqAj4BvlfWGVQL3a8l-29" value="Route53&lt;div&gt;(DNS)&lt;/div&gt;" style="text;html=1;align=center;verticalAlign=middle;whiteSpace=wrap;rounded=0;" vertex="1" parent="1">
          <mxGeometry x="240" y="185" width="60" height="30" as="geometry" />
        </mxCell>
        <mxCell id="lHFqAj4BvlfWGVQL3a8l-33" value="" style="group" vertex="1" connectable="0" parent="1">
          <mxGeometry x="661" y="100" width="140" height="120" as="geometry" />
        </mxCell>
        <mxCell id="lHFqAj4BvlfWGVQL3a8l-34" value="Amazon S3&lt;div&gt;(Static Files (非公開))&lt;/div&gt;" style="text;html=1;align=center;verticalAlign=middle;resizable=0;points=[];autosize=1;strokeColor=none;fillColor=none;" vertex="1" parent="lHFqAj4BvlfWGVQL3a8l-33">
          <mxGeometry y="80" width="140" height="40" as="geometry" />
        </mxCell>
        <mxCell id="lHFqAj4BvlfWGVQL3a8l-35" value="" style="sketch=0;points=[[0,0,0],[0.25,0,0],[0.5,0,0],[0.75,0,0],[1,0,0],[0,1,0],[0.25,1,0],[0.5,1,0],[0.75,1,0],[1,1,0],[0,0.25,0],[0,0.5,0],[0,0.75,0],[1,0.25,0],[1,0.5,0],[1,0.75,0]];outlineConnect=0;fontColor=#232F3E;fillColor=#7AA116;strokeColor=#ffffff;dashed=0;verticalLabelPosition=bottom;verticalAlign=top;align=center;html=1;fontSize=12;fontStyle=0;aspect=fixed;shape=mxgraph.aws4.resourceIcon;resIcon=mxgraph.aws4.s3;" vertex="1" parent="lHFqAj4BvlfWGVQL3a8l-33">
          <mxGeometry x="31" width="78" height="78" as="geometry" />
        </mxCell>
        <mxCell id="lHFqAj4BvlfWGVQL3a8l-36" value="" style="group" vertex="1" connectable="0" parent="1">
          <mxGeometry x="421.5" y="280" width="160" height="118" as="geometry" />
        </mxCell>
        <mxCell id="lHFqAj4BvlfWGVQL3a8l-37" value="" style="sketch=0;points=[[0,0,0],[0.25,0,0],[0.5,0,0],[0.75,0,0],[1,0,0],[0,1,0],[0.25,1,0],[0.5,1,0],[0.75,1,0],[1,1,0],[0,0.25,0],[0,0.5,0],[0,0.75,0],[1,0.25,0],[1,0.5,0],[1,0.75,0]];outlineConnect=0;fontColor=#232F3E;fillColor=#DD344C;strokeColor=#ffffff;dashed=0;verticalLabelPosition=bottom;verticalAlign=top;align=center;html=1;fontSize=12;fontStyle=0;aspect=fixed;shape=mxgraph.aws4.resourceIcon;resIcon=mxgraph.aws4.certificate_manager_3;" vertex="1" parent="lHFqAj4BvlfWGVQL3a8l-36">
          <mxGeometry x="41" width="78" height="78" as="geometry" />
        </mxCell>
        <mxCell id="lHFqAj4BvlfWGVQL3a8l-38" value="AWS Certificate Manager&lt;div&gt;(SSL Cert)&lt;/div&gt;" style="text;html=1;align=center;verticalAlign=middle;resizable=0;points=[];autosize=1;strokeColor=none;fillColor=none;" vertex="1" parent="lHFqAj4BvlfWGVQL3a8l-36">
          <mxGeometry y="78" width="160" height="40" as="geometry" />
        </mxCell>
        <mxCell id="lHFqAj4BvlfWGVQL3a8l-39" value="" style="group" vertex="1" connectable="0" parent="1">
          <mxGeometry x="462.5" y="460" width="104" height="113" as="geometry" />
        </mxCell>
        <mxCell id="lHFqAj4BvlfWGVQL3a8l-40" value="" style="sketch=0;points=[[0,0,0],[0.25,0,0],[0.5,0,0],[0.75,0,0],[1,0,0],[0,1,0],[0.25,1,0],[0.5,1,0],[0.75,1,0],[1,1,0],[0,0.25,0],[0,0.5,0],[0,0.75,0],[1,0.25,0],[1,0.5,0],[1,0.75,0]];outlineConnect=0;fontColor=#232F3E;fillColor=#7AA116;strokeColor=#ffffff;dashed=0;verticalLabelPosition=bottom;verticalAlign=top;align=center;html=1;fontSize=12;fontStyle=0;aspect=fixed;shape=mxgraph.aws4.resourceIcon;resIcon=mxgraph.aws4.s3;" vertex="1" parent="lHFqAj4BvlfWGVQL3a8l-39">
          <mxGeometry width="78" height="78" as="geometry" />
        </mxCell>
        <mxCell id="lHFqAj4BvlfWGVQL3a8l-41" value="tfstate S3&lt;div&gt;(State Management)&lt;/div&gt;" style="text;html=1;align=center;verticalAlign=middle;resizable=0;points=[];autosize=1;strokeColor=none;fillColor=none;" vertex="1" parent="lHFqAj4BvlfWGVQL3a8l-39">
          <mxGeometry x="-26" y="73" width="130" height="40" as="geometry" />
        </mxCell>
        <mxCell id="lHFqAj4BvlfWGVQL3a8l-32" value="" style="edgeStyle=orthogonalEdgeStyle;html=1;endArrow=block;elbow=vertical;startArrow=block;startFill=1;endFill=1;strokeColor=#545B64;rounded=0;exitX=1;exitY=0.5;exitDx=0;exitDy=0;exitPerimeter=0;" edge="1" parent="1" source="lHFqAj4BvlfWGVQL3a8l-40" target="lHFqAj4BvlfWGVQL3a8l-43">
          <mxGeometry width="100" relative="1" as="geometry">
            <mxPoint x="566.75" y="500" as="sourcePoint" />
            <mxPoint x="666.75" y="500" as="targetPoint" />
          </mxGeometry>
        </mxCell>
        <mxCell id="lHFqAj4BvlfWGVQL3a8l-42" value="" style="group" vertex="1" connectable="0" parent="1">
          <mxGeometry x="692" y="460" width="179" height="140" as="geometry" />
        </mxCell>
        <mxCell id="lHFqAj4BvlfWGVQL3a8l-43" value="" style="shape=image;imageAspect=0;aspect=fixed;verticalLabelPosition=bottom;verticalAlign=top;image=https://www.svgrepo.com/show/354447/terraform-icon.svg;" vertex="1" parent="lHFqAj4BvlfWGVQL3a8l-42">
          <mxGeometry width="79" height="79" as="geometry" />
        </mxCell>
        <mxCell id="lHFqAj4BvlfWGVQL3a8l-44" value="Terraform&lt;div&gt;(Infrastructure as Code)&lt;/div&gt;" style="text;html=1;align=center;verticalAlign=middle;resizable=0;points=[];autosize=1;strokeColor=none;fillColor=none;" vertex="1" parent="lHFqAj4BvlfWGVQL3a8l-42">
          <mxGeometry x="-35.5" y="74" width="150" height="40" as="geometry" />
        </mxCell>
        <mxCell id="lHFqAj4BvlfWGVQL3a8l-28" value="AWS Cloud" style="points=[[0,0],[0.25,0],[0.5,0],[0.75,0],[1,0],[1,0.25],[1,0.5],[1,0.75],[1,1],[0.75,1],[0.5,1],[0.25,1],[0,1],[0,0.75],[0,0.5],[0,0.25]];outlineConnect=0;gradientColor=none;html=1;whiteSpace=wrap;fontSize=12;fontStyle=0;container=1;pointerEvents=0;collapsible=0;recursiveResize=0;shape=mxgraph.aws4.group;grIcon=mxgraph.aws4.group_aws_cloud_alt;strokeColor=#232F3E;fillColor=none;verticalAlign=top;align=left;spacingLeft=30;fontColor=#232F3E;dashed=0;" vertex="1" parent="lHFqAj4BvlfWGVQL3a8l-42">
          <mxGeometry x="-529.25" y="-440" width="708.25" height="580" as="geometry" />
        </mxCell>
        <mxCell id="lHFqAj4BvlfWGVQL3a8l-50" value="HTML Deploy" style="text;html=1;align=center;verticalAlign=middle;resizable=0;points=[];autosize=1;strokeColor=none;fillColor=none;" vertex="1" parent="lHFqAj4BvlfWGVQL3a8l-28">
          <mxGeometry x="608.25" y="98" width="100" height="30" as="geometry" />
        </mxCell>
        <mxCell id="lHFqAj4BvlfWGVQL3a8l-46" value="Cache Invalidation" style="text;html=1;align=center;verticalAlign=middle;whiteSpace=wrap;rounded=0;" vertex="1" parent="lHFqAj4BvlfWGVQL3a8l-28">
          <mxGeometry x="357.25" y="19" width="130" height="30" as="geometry" />
        </mxCell>
        <mxCell id="lHFqAj4BvlfWGVQL3a8l-31" value="" style="edgeStyle=orthogonalEdgeStyle;html=1;endArrow=block;elbow=vertical;startArrow=none;endFill=1;strokeColor=#545B64;rounded=0;entryX=0.5;entryY=0;entryDx=0;entryDy=0;entryPerimeter=0;exitX=0.5;exitY=1;exitDx=0;exitDy=0;" edge="1" parent="1" target="lHFqAj4BvlfWGVQL3a8l-37" source="lHFqAj4BvlfWGVQL3a8l-30">
          <mxGeometry width="100" relative="1" as="geometry">
            <mxPoint x="1309.5" y="930" as="sourcePoint" />
            <mxPoint x="1309" y="990" as="targetPoint" />
          </mxGeometry>
        </mxCell>
        <mxCell id="lHFqAj4BvlfWGVQL3a8l-45" value="" style="edgeStyle=orthogonalEdgeStyle;html=1;endArrow=block;elbow=vertical;startArrow=none;endFill=1;strokeColor=#545B64;rounded=1;entryX=1;entryY=0.5;entryDx=0;entryDy=0;entryPerimeter=0;curved=0;" edge="1" parent="1" source="bCrB_X___vxIP5thywsW-6" target="lHFqAj4BvlfWGVQL3a8l-35">
          <mxGeometry width="100" relative="1" as="geometry">
            <mxPoint x="960" y="480" as="sourcePoint" />
            <mxPoint x="990" y="330" as="targetPoint" />
            <Array as="points">
              <mxPoint x="960" y="139" />
            </Array>
          </mxGeometry>
        </mxCell>
      </root>
    </mxGraphModel>
  </diagram>
</mxfile>
